<svg width="24" height="24" viewBox="0 0 24 24" fill="none" xmlns="http://www.w3.org/2000/svg">
<rect width="24" height="24" rx="12" fill="#1F1F1F"/>
<path d="M3.224 18C3.04267 18 2.89333 17.9413 2.776 17.824C2.65867 17.7067 2.6 17.5573 2.6 17.376V6.128C2.6 5.94667 2.65867 5.79733 2.776 5.68C2.89333 5.56267 3.04267 5.504 3.224 5.504H11.736C11.9173 5.504 12.0667 5.56267 12.184 5.68C12.3013 5.79733 12.36 5.94667 12.36 6.128V17.376C12.36 17.5573 12.3013 17.7067 12.184 17.824C12.0667 17.9413 11.9173 18 11.736 18C11.5547 18 11.4053 17.9413 11.288 17.824C11.1707 17.7067 11.112 17.5573 11.112 17.376V6.672H3.848V17.376C3.848 17.5573 3.78933 17.7067 3.672 17.824C3.55467 17.9413 3.40533 18 3.224 18ZM21.8411 17.84C21.7345 17.9573 21.5905 18.0107 21.4091 18C21.2278 18 21.0838 17.936 20.9771 17.808L15.7931 11.648L20.5611 5.696C20.6785 5.568 20.8225 5.504 20.9931 5.504C21.1638 5.49333 21.3078 5.54667 21.4251 5.664C21.5531 5.792 21.6118 5.93067 21.6011 6.08C21.6011 6.21867 21.5478 6.352 21.4411 6.48L17.2971 11.584L21.9051 17.008C22.0225 17.1467 22.0705 17.2907 22.0491 17.44C22.0385 17.5787 21.9691 17.712 21.8411 17.84ZM13.7771 18C13.5958 18 13.4465 17.9413 13.3291 17.824C13.2118 17.7067 13.1531 17.5573 13.1531 17.376V6.128C13.1531 5.94667 13.2118 5.79733 13.3291 5.68C13.4465 5.56267 13.5958 5.504 13.7771 5.504C13.9585 5.504 14.1078 5.56267 14.2251 5.68C14.3425 5.79733 14.4011 5.94667 14.4011 6.128V11.12H16.9291V12.24H14.4011V17.376C14.4011 17.5573 14.3425 17.7067 14.2251 17.824C14.1078 17.9413 13.9585 18 13.7771 18Z" fill="white"/>
</svg>
